# xmcd CD database file
#
# Track frame offsets:
#	150
#	18418
#	34106
#	47096
#	61191
#	78495
#	90484
#	105086
#	119355
#	133221
#	151003
#	162588
#	174495
#	185665
#	195661
#	209196
#	222262
#	237133
#	249249
#	267623
#	278854
#	291940
#	306188
#
# Disc length: 4272 seconds
#
# Revision: 3
# Processed by: cddbd v1.4PL0 Copyright (c) Steve Scherf et al.
# Submitted via: CDex 1.40Beta8
#
DISCID=4d10ae17
DTITLE=Raul Produções - Só As Bruta - Vol II
DYEAR=2002
DGENRE=Country
TTITLE0=Gino and Geno - Lorota
TTITLE1=Gilberto and Gilmar - Maria Tcha Tcha Tcha
TTITLE2=Felipe and Falcão - Vanerão da Mulher Feia
TTITLE3=Felipe and Falcão - Meu Táxi é Um Cacete
TTITLE4=Gino and Geno - Mulher Que Não Dá Voa
TTITLE5=Gilberto and Gilmar - Nóis Não Vive Sem Muié
TTITLE6=Gino and Geno - Nóis Não Vive é Sem Dinheiro
TTITLE7=Felipe and Falcão - Quem Quer Verdura
TTITLE8=Felipe and Falcão - O Saco Ficou de Fora
TTITLE9=Gilberto and Gilmar - Tá Ruim Mas Tá Bão
TTITLE10=Felipe and Falcão - Com Meu Tio João. Com Meu Tio José
TTITLE11=Teodoro and Sampaio - Cantaram Minha Vizinha
TTITLE12=César and Paulinho - Pé de Bode
TTITLE13=Jorge Moisés - Dona Maria Solta Meu Pinto
TTITLE14=Rick and Renner - Tira a Roupa
TTITLE15=Teodoro and Sampaio - Se a Casa Cair
TTITLE16=Sérgio Reis - Panela Velha
TTITLE17=Teodoro and Sampaio - De Parede Meia
TTITLE18=César and Paulinho - Verdade de Pescador
TTITLE19=Teodoro e Sampaio - Silicone
TTITLE20=Sandro and Gustavo - Garagem da Vizinha
TTITLE21=Teodoro and Sampaio - A Gostosona
TTITLE22=Teodoro and Sampaio - Tadinha da Minha Secretária
EXTD=YEAR: 2002 ID3G: 2
EXTT0=
EXTT1=
EXTT2=
EXTT3=
EXTT4=
EXTT5=
EXTT6=
EXTT7=
EXTT8=
EXTT9=
EXTT10=
EXTT11=
EXTT12=
EXTT13=
EXTT14=
EXTT15=
EXTT16=
EXTT17=
EXTT18=
EXTT19=
EXTT20=
EXTT21=
EXTT22=
PLAYORDER=
